<svg width="60" height="60" viewBox="0 0 60 60" fill="none" xmlns="http://www.w3.org/2000/svg">
<path d="M29.789 8.91797C35.5312 8.95313 40.4297 10.8398 44.5195 14.6953C48.5976 18.5508 50.8242 23.332 51.0937 28.9453C51.375 34.9453 49.4531 40.1953 45.293 44.543C41.2031 48.8203 36.1523 51.0234 30.2226 51.082C24.7031 51.1406 19.8633 49.2891 15.8086 45.5508C11.0273 41.1328 8.73045 35.6016 8.97655 29.0977C9.17577 23.6484 11.2734 18.9609 15.1289 15.1172C19.1953 11.0508 24.164 9.02344 29.789 8.91797Z" fill="#0087CB"/>
<path d="M23.5546 32.8477C22.4062 32.4961 21.246 32.1328 20.0976 31.7812C19.5351 31.6055 18.9726 31.4297 18.4101 31.2539C18.1992 31.1836 17.9999 31.1133 17.8242 30.9844C17.496 30.7383 17.4726 30.4336 17.7539 30.1289C17.9414 29.918 18.1757 29.7773 18.4335 29.6719C19.1132 29.4023 19.7929 29.1328 20.4726 28.8633C25.1601 27.0586 29.8476 25.2422 34.5468 23.4375C36.0351 22.8633 37.5117 22.2891 39 21.7148C39.1992 21.6328 39.4101 21.5859 39.6328 21.6211C40.0781 21.6914 40.4179 22.0547 40.4648 22.5234C40.4882 22.7813 40.4765 23.0391 40.4296 23.2969C39.8554 25.9922 39.2812 28.6992 38.707 31.3945C38.2382 33.6211 37.7578 35.8477 37.289 38.0859C37.1835 38.5898 37.0781 39.0937 36.9726 39.5976C36.9257 39.8437 36.8554 40.0781 36.7382 40.3008C36.5039 40.7344 36.1289 40.8984 35.6484 40.8047C35.3554 40.7461 35.0976 40.6172 34.8632 40.4414C33.246 39.2461 31.6289 38.0391 29.9999 36.8437C29.9296 36.7852 29.8476 36.7383 29.7773 36.6914C29.496 36.6094 29.2968 36.3984 29.0742 36.2344C28.3007 35.6719 27.5273 35.0859 26.7539 34.5234C26.6953 34.4766 26.6367 34.4297 26.5898 34.3711C26.5195 34.2539 26.5898 34.1836 26.6601 34.1133C27.7148 33.1758 28.7578 32.2148 29.8124 31.2773C30.5742 30.5859 31.3476 29.8945 32.1093 29.2031C32.871 28.5117 33.6328 27.832 34.3945 27.1523C34.9921 26.6133 35.5898 26.0859 36.1757 25.5469C36.2226 25.5 36.2695 25.4531 36.3164 25.4062C36.3515 25.3594 36.3984 25.3125 36.3749 25.2539C36.3515 25.1836 36.2812 25.1836 36.2226 25.1836C36.0117 25.1602 35.8359 25.2422 35.6601 25.3477C35.0156 25.7344 34.3945 26.1445 33.7617 26.543C31.8398 27.75 29.9062 28.9687 27.9843 30.1758C26.6601 31.0078 25.3359 31.8398 24.0117 32.6836C23.8593 32.7656 23.7539 32.918 23.5546 32.8477Z" fill="#FCFDFE"/>
<path d="M23.5547 32.8477C23.8711 32.7187 24.1406 32.5078 24.4336 32.332C25.2773 31.8047 26.1211 31.2773 26.9648 30.7383C27.5625 30.3633 28.1484 29.9766 28.7461 29.6016C29.7305 28.9805 30.7266 28.3594 31.7227 27.7383C32.4141 27.3047 33.1055 26.8594 33.8086 26.4141C34.418 26.0273 35.0273 25.6406 35.6367 25.2539C35.8359 25.1367 36.0352 25.0664 36.2812 25.0898C36.3516 25.1016 36.4219 25.1016 36.4453 25.1719C36.4805 25.2422 36.457 25.3125 36.3984 25.3828C36.2578 25.5234 36.1289 25.6758 35.9648 25.8047C35.6719 26.0391 35.4141 26.3086 35.1328 26.5547C34.6758 26.9414 34.2539 27.3633 33.7969 27.75C33.6094 27.9141 33.4336 28.0898 33.2461 28.2539C32.9766 28.4766 32.7187 28.7461 32.4609 28.9805C32.0625 29.3437 31.6523 29.6953 31.2539 30.0469C31.0781 30.2109 30.8906 30.375 30.7266 30.5391C30.293 30.9492 29.8359 31.3359 29.4023 31.7461C28.875 32.2266 28.3359 32.6953 27.8203 33.1875C27.4453 33.5391 27.0469 33.8672 26.6602 34.207C26.6016 34.2539 26.6016 34.3008 26.6367 34.3594C26.5547 35.6836 26.4609 37.0078 26.3789 38.332C26.3555 38.6836 26.3086 39.0234 26.3203 39.375C26.3203 39.4805 26.3203 39.5742 26.2383 39.6563C26.168 39.6797 26.0859 39.6797 26.0156 39.6797C25.8047 39.668 25.6523 39.5625 25.5938 39.3633C25.5352 39.1523 25.4648 38.9531 25.4062 38.7422C24.832 36.8555 24.2578 34.957 23.6836 33.0703C23.625 32.9883 23.5898 32.918 23.5547 32.8477Z" fill="#CCD9E9"/>
<path d="M26.2031 39.6445C26.1679 39.1875 26.25 38.7305 26.2617 38.2852C26.2851 37.793 26.332 37.3008 26.3554 36.8086C26.3906 36.3047 26.4257 35.8008 26.4609 35.3086C26.4726 35.0508 26.4961 34.793 26.4961 34.5469C26.4961 34.4648 26.5195 34.4063 26.6015 34.3594C27.5507 35.0625 28.5 35.7539 29.4375 36.457C29.5429 36.5391 29.6601 36.5977 29.7422 36.7031C28.8632 37.5586 27.9726 38.4141 27.0937 39.2695C26.8593 39.5039 26.5781 39.6914 26.2031 39.6445Z" fill="#B1C8DB"/>
</svg>
